# xmcd
#
# Track frame offsets: 
#        150
#        13332
#        25037
#        33972
#        45702
#        58325
#        63527
#        71522
#        81317
#        92475
#
# Disc length: 1348 seconds
#
# Revision: 1
# Processed by: cddbd v1.5.1PL0 Copyright (c) Steve Scherf et al.
# Submitted via: ExactAudioCopy v0.95a4
#
DISCID=8305420a
DTITLE=Gene Autry - Rudolph The Red-Nosed Reindeer-Christmas Classics
DYEAR=1993
DGENRE=Christmas
TTITLE0=Rudolph The Red-Nosed Reindeer
TTITLE1=Santa Claus Is Coming To Town
TTITLE2=Jingle Bells
TTITLE3=Silver Bells
TTITLE4=Here Comes Santa Claus
TTITLE5=O! Little Town Of Bethlehem
TTITLE6=Silent Night
TTITLE7=Up On The House Top
TTITLE8=Sleigh Bells
TTITLE9=Frosty The Snowman
EXTD=Gene Autry- Rudolph The Red-Nosed Reindeer-Christmas Classics
EXTT0=
EXTT1=
EXTT2=
EXTT3=
EXTT4=
EXTT5=
EXTT6=
EXTT7=
EXTT8=
EXTT9=
PLAYORDER=
